<svg xmlns="http://www.w3.org/2000/svg" viewBox="0 0 980 430" role="img"><title>Sampled CPU use: load generators and API servers</title>
<rect width="100%" height="100%" fill="white"/>
<text x="25" y="30" font-family="sans-serif" font-size="21">Sampled CPU use: load generators and API servers</text>
<path d="M 85 340.0 h 865" stroke="#e2e8f0"/>
<text x="77" y="345.0" text-anchor="end" font-family="sans-serif" font-size="12">0.0</text>
<path d="M 85 286.0 h 865" stroke="#e2e8f0"/>
<text x="77" y="291.0" text-anchor="end" font-family="sans-serif" font-size="12">0.9</text>
<path d="M 85 232.0 h 865" stroke="#e2e8f0"/>
<text x="77" y="237.0" text-anchor="end" font-family="sans-serif" font-size="12">1.8</text>
<path d="M 85 178.0 h 865" stroke="#e2e8f0"/>
<text x="77" y="183.0" text-anchor="end" font-family="sans-serif" font-size="12">2.6</text>
<path d="M 85 123.99999999999999 h 865" stroke="#e2e8f0"/>
<text x="77" y="129.0" text-anchor="end" font-family="sans-serif" font-size="12">3.5</text>
<path d="M 85 70.0 h 865" stroke="#e2e8f0"/>
<text x="77" y="75.0" text-anchor="end" font-family="sans-serif" font-size="12">4.4</text>
<text x="8" y="52" font-family="sans-serif" font-size="12">CPU cores</text>
<text x="85" y="52" fill="#2563eb" font-family="sans-serif" font-size="12">Standard etcd</text>
<rect x="236.25" y="105.21739130434781" width="62" height="234.7826086956522" fill="#2563eb"><title>Standard etcd: 3.84 CPU cores</title></rect>
<rect x="668.75" y="229.8883023313773" width="62" height="110.11169766862271" fill="#2563eb"><title>Standard etcd: 1.80 CPU cores</title></rect>
<text x="345" y="52" fill="#ea580c" font-family="sans-serif" font-size="12">TiKV-Dovetail</text>
<rect x="301.25" y="106.44085461177696" width="62" height="233.55914538822304" fill="#ea580c"><title>TiKV-Dovetail: 3.82 CPU cores</title></rect>
<rect x="733.75" y="243.22405238235493" width="62" height="96.77594761764507" fill="#ea580c"><title>TiKV-Dovetail: 1.58 CPU cores</title></rect>
<text x="301.25" y="365" text-anchor="middle" font-family="sans-serif" font-size="12">All runner pods</text>
<text x="733.75" y="365" text-anchor="middle" font-family="sans-serif" font-size="12">Busiest API container</text>
</svg>